<svg width="100" height="100" viewBox="0 0 100 100" fill="none" xmlns="http://www.w3.org/2000/svg">
<path d="M74.3668 20.5147C79.0531 15.8284 86.6511 15.8284 91.3374 20.5147C96.0237 25.201 96.0237 32.799 91.3374 37.4853L48.4105 80.4122C43.7242 85.0985 36.1262 85.0985 31.4399 80.4122C26.7536 75.7259 26.7536 68.1279 31.4399 63.4416L74.3668 20.5147Z" fill="#F8F8F8"/>
<path d="M48.2653 63.2947C52.9516 67.9809 52.9516 75.5789 48.2653 80.2652C43.579 84.9515 35.981 84.9515 31.2947 80.2652L8.51471 57.4852C3.82842 52.7989 3.82843 45.2009 8.51472 40.5147C13.201 35.8284 20.799 35.8284 25.4853 40.5147L48.2653 63.2947Z" fill="#F8F8F8"/>
</svg>
