<svg width="100" height="100" viewBox="0 0 100 100" fill="none" xmlns="http://www.w3.org/2000/svg">
<mask id="path-1-inside-1_465_121" fill="white">
<path fill-rule="evenodd" clip-rule="evenodd" d="M13 14C13 6.26801 19.268 0 27 0H73C80.732 0 87 6.26801 87 14V86C87 93.732 80.732 100 73 100H27C19.268 100 13 93.732 13 86V14ZM45.4427 34.1C45.4427 31.8356 47.2783 30 49.5427 30C51.8071 30 53.6427 31.8356 53.6427 34.1V46.4H65.9C68.1644 46.4 70 48.2356 70 50.5C70 52.7644 68.1644 54.6 65.9 54.6H53.6427V66.9C53.6427 69.1644 51.8071 71 49.5427 71C47.2783 71 45.4427 69.1644 45.4427 66.9V54.6H33.1C30.8356 54.6 29 52.7644 29 50.5C29 48.2356 30.8356 46.4 33.1 46.4H45.4427V34.1Z"/>
</mask>
<path fill-rule="evenodd" clip-rule="evenodd" d="M13 14C13 6.26801 19.268 0 27 0H73C80.732 0 87 6.26801 87 14V86C87 93.732 80.732 100 73 100H27C19.268 100 13 93.732 13 86V14ZM45.4427 34.1C45.4427 31.8356 47.2783 30 49.5427 30C51.8071 30 53.6427 31.8356 53.6427 34.1V46.4H65.9C68.1644 46.4 70 48.2356 70 50.5C70 52.7644 68.1644 54.6 65.9 54.6H53.6427V66.9C53.6427 69.1644 51.8071 71 49.5427 71C47.2783 71 45.4427 69.1644 45.4427 66.9V54.6H33.1C30.8356 54.6 29 52.7644 29 50.5C29 48.2356 30.8356 46.4 33.1 46.4H45.4427V34.1Z" fill="#F8F8F8"/>
<path d="M53.6427 46.4H45.6427V54.4H53.6427V46.4ZM53.6427 54.6V46.6H45.6427V54.6H53.6427ZM45.4427 54.6H53.4427V46.6H45.4427V54.6ZM45.4427 46.4V54.4H53.4427V46.4H45.4427ZM27 -8C14.8497 -8 5 1.84973 5 14H21C21 10.6863 23.6863 8 27 8V-8ZM73 -8H27V8H73V-8ZM95 14C95 1.84974 85.1503 -8 73 -8V8C76.3137 8 79 10.6863 79 14H95ZM95 86V14H79V86H95ZM73 108C85.1503 108 95 98.1503 95 86H79C79 89.3137 76.3137 92 73 92V108ZM27 108H73V92H27V108ZM5 86C5 98.1503 14.8497 108 27 108V92C23.6863 92 21 89.3137 21 86H5ZM5 14V86H21V14H5ZM49.5427 22C42.8601 22 37.4427 27.4174 37.4427 34.1H53.4427C53.4427 36.2539 51.6966 38 49.5427 38V22ZM61.6427 34.1C61.6427 27.4174 56.2254 22 49.5427 22V38C47.3888 38 45.6427 36.2539 45.6427 34.1H61.6427ZM61.6427 46.4V34.1H45.6427V46.4H61.6427ZM53.6427 54.4H65.9V38.4H53.6427V54.4ZM65.9 54.4C63.7461 54.4 62 52.6539 62 50.5H78C78 43.8174 72.5827 38.4 65.9 38.4V54.4ZM62 50.5C62 48.3461 63.7461 46.6 65.9 46.6V62.6C72.5826 62.6 78 57.1826 78 50.5H62ZM65.9 46.6H53.6427V62.6H65.9V46.6ZM61.6427 66.9V54.6H45.6427V66.9H61.6427ZM49.5427 79C56.2254 79 61.6427 73.5826 61.6427 66.9H45.6427C45.6427 64.7461 47.3888 63 49.5427 63V79ZM37.4427 66.9C37.4427 73.5826 42.8601 79 49.5427 79V63C51.6966 63 53.4427 64.7461 53.4427 66.9H37.4427ZM37.4427 54.6V66.9H53.4427V54.6H37.4427ZM45.4427 46.6H33.1V62.6H45.4427V46.6ZM33.1 46.6C35.2539 46.6 37 48.3461 37 50.5H21C21 57.1826 26.4173 62.6 33.1 62.6V46.6ZM37 50.5C37 52.6539 35.2539 54.4 33.1 54.4V38.4C26.4174 38.4 21 43.8174 21 50.5H37ZM33.1 54.4H45.4427V38.4H33.1V54.4ZM37.4427 34.1V46.4H53.4427V34.1H37.4427Z" fill="#F8F8F8" mask="url(#path-1-inside-1_465_121)"/>
</svg>
