<svg width="100" height="100" viewBox="0 0 100 100" fill="none" xmlns="http://www.w3.org/2000/svg">
<path fill-rule="evenodd" clip-rule="evenodd" d="M95 50C95 74.8528 74.8528 95 50 95C25.1472 95 5 74.8528 5 50C5 25.1472 25.1472 5 50 5C74.8528 5 95 25.1472 95 50ZM24 49.5C24 45.3579 27.3579 42 31.5 42H42V31.5C42 27.3579 45.3579 24 49.5 24C53.6421 24 57 27.3579 57 31.5V42H67.5C71.6421 42 75 45.3579 75 49.5C75 53.6421 71.6421 57 67.5 57H57V67.5C57 71.6421 53.6421 75 49.5 75C45.3579 75 42 71.6421 42 67.5V57H31.5C27.3579 57 24 53.6421 24 49.5Z" fill="#F8F8F8"/>
</svg>
