<svg width="100" height="100" viewBox="0 0 100 100" fill="none" xmlns="http://www.w3.org/2000/svg">
<path d="M95 48.9069C95 47.6668 94.3423 46.5197 93.2721 45.8933L52.0208 5.54787C50.7728 4.81738 49.2277 4.81738 47.9797 5.54787L6.72783 45.8936C5.65767 46.52 5 47.667 5 48.9071C5 50.8355 6.56321 52.3987 8.49153 52.3987H11C13.2091 52.3987 15 54.1897 15 56.3989V90.9998C15 93.2091 16.7909 95 19 95H37.6364C39.8455 95 41.6364 93.2091 41.6364 90.9998V70.5496C41.6364 66.0307 45.2995 62.3674 49.8182 62.3674C54.3369 62.3674 58 66.0307 58 70.5496V90.9998C58 93.2091 59.7909 95 62 95H81C83.2091 95 85 93.2091 85 90.9998V56.3989C85 54.1897 86.7909 52.3987 89 52.3987H91.5083C93.4367 52.3987 95 50.8354 95 48.9069Z" fill="#F8F8F8"/>
</svg>
