<svg width="100" height="100" viewBox="0 0 100 100" fill="none" xmlns="http://www.w3.org/2000/svg">
<mask id="mask0_805_92" style="mask-type:alpha" maskUnits="userSpaceOnUse" x="40" y="7" width="39" height="39">
<path d="M40.5527 7.5H78.3948V45.1669L40.5527 33.6297V7.5Z" fill="#D9D9D9" stroke="#F8F8F8"/>
</mask>
<g mask="url(#mask0_805_92)">
<path d="M46.7967 25.811L46.7054 25.5509L45.1796 23.3789L46.7054 25.5509L45.8155 23.0171L46.7054 25.5509L46.8639 25.7765C46.8636 25.7767 46.8634 25.7768 46.8632 25.7769L46.8638 25.7765L46.7054 25.551L46.7967 25.811ZM46.7967 25.811L46.8327 25.7984" stroke="#F8F8F8" stroke-width="6"/>
</g>
<rect x="5" y="48.6843" width="90" height="12.3158" rx="5" fill="#F8F8F8"/>
<path fill-rule="evenodd" clip-rule="evenodd" d="M84.3171 55.3159C87.0785 55.3159 89.3171 57.5545 89.3171 60.3159V68.2162L89.3171 68.2163L83.4865 89.5299C82.8919 91.7034 80.917 93.2106 78.6637 93.2106H21.339C19.0857 93.2106 17.1108 91.7034 16.5162 89.5299L10.6856 68.2163L10.6855 68.2162V60.3159C10.6855 57.5545 12.9241 55.3159 15.6855 55.3159H84.3171ZM50.4744 61C47.8583 61 45.7376 63.1208 45.7376 65.7369V78.0526C45.7376 80.6687 47.8583 82.7895 50.4744 82.7895C53.0905 82.7895 55.2112 80.6687 55.2112 78.0527V65.7369C55.2112 63.1208 53.0905 61 50.4744 61ZM30.5797 65.7369C30.5797 63.1208 32.7004 61 35.3165 61C37.9326 61 40.0534 63.1208 40.0534 65.7369V78.0527C40.0534 80.6687 37.9326 82.7895 35.3165 82.7895C32.7004 82.7895 30.5797 80.6687 30.5797 78.0526V65.7369ZM65.6323 61C63.0162 61 60.8955 63.1208 60.8955 65.7369V78.0526C60.8955 80.6687 63.0162 82.7895 65.6323 82.7895C68.2484 82.7895 70.3691 80.6687 70.3691 78.0527V65.7369C70.3691 63.1208 68.2484 61 65.6323 61Z" fill="#F8F8F8"/>
<mask id="mask1_805_92" style="mask-type:alpha" maskUnits="userSpaceOnUse" x="15" y="29" width="43" height="22">
<path d="M15.9199 50.0789H44.503L56.2279 30.2368H15.9199V50.0789Z" fill="#D9D9D9" stroke="#F8F8F8"/>
</mask>
<g mask="url(#mask1_805_92)">
<path d="M54.1041 49.0158C54.1041 57.7904 46.3405 65.2947 36.262 65.2947C26.1836 65.2947 18.4199 57.7904 18.4199 49.0158C18.4199 40.2411 26.1836 32.7368 36.262 32.7368C46.3405 32.7368 54.1041 40.2411 54.1041 49.0158Z" stroke="#F8F8F8" stroke-width="6"/>
</g>
<path d="M85.3789 48.6844L60.1885 32.8725C58.2833 31.6766 55.7997 31.9855 54.2456 33.6118L39.8418 48.6844H47.7042L57.8211 38.0977L74.687 48.6844H85.3789Z" fill="#F8F8F8"/>
</svg>
