<svg width="100" height="100" viewBox="0 0 100 100" fill="none" xmlns="http://www.w3.org/2000/svg">
<path fill-rule="evenodd" clip-rule="evenodd" d="M72.6777 64.7625C72.6777 69.2164 78.0622 71.4475 81.2124 68.2989L92.0626 57.4542C95.9751 53.5436 95.9731 47.2029 92.0626 43.2944L81.2124 32.4497C78.0622 29.3011 72.6777 31.5322 72.6777 35.9861C72.6777 37.3126 73.2049 38.5848 74.1431 39.5225L84.9933 50.3672C84.9972 50.3711 84.9972 50.3775 84.9933 50.3814L74.1431 61.2261C73.2049 62.1638 72.6777 63.436 72.6777 64.7625Z" fill="#F8F8F8"/>
<rect x="46.4941" y="44.7754" width="47.7446" height="10" rx="5" fill="#F8F8F8"/>
<path fill-rule="evenodd" clip-rule="evenodd" d="M48.6867 5H25C13.9543 5 5 13.9543 5 25V75C5 86.0457 13.9543 95 25 95H48.6867C59.7324 95 68.6867 86.0457 68.6867 75C68.6867 72.2386 66.4481 70 63.6867 70C60.9252 70 58.6867 72.2386 58.6867 75C58.6867 80.5229 54.2095 85 48.6867 85H25C19.4772 85 15 80.5229 15 75V25C15 19.4772 19.4772 15 25 15H48.6867C54.2095 15 58.6867 19.4772 58.6867 25V26C58.6867 28.7614 60.9252 31 63.6867 31C66.4481 31 68.6867 28.7614 68.6867 26V25C68.6867 13.9543 59.7324 5 48.6867 5Z" fill="#F8F8F8"/>
<rect x="21.0957" y="21" width="19.3034" height="58" rx="9.6517" fill="#F8F8F8"/>
</svg>
