<svg width="687" height="167" viewBox="0 0 687 167" fill="none" xmlns="http://www.w3.org/2000/svg">
<path d="M19.1258 0C8.56293 0 0 8.45797 0 18.8914V147.353C0 157.786 8.56293 166.244 19.1258 166.244L143.444 166.244C154.007 166.244 162.57 157.786 162.57 147.353V111.837C162.57 101.404 154.007 92.9457 143.444 92.9457L87.2138 92.9457V18.8914C87.2138 8.45797 78.6509 0 68.088 0H19.1258Z" fill="#F8F8F8"/>
<path d="M474.703 148.109C474.703 158.542 466.14 167 455.577 167L406.615 167C396.052 167 387.489 158.542 387.489 148.109V74.0543H368.746C358.183 74.0543 349.62 65.5963 349.62 55.1629L349.62 19.6471C349.62 9.21363 358.183 0.755661 368.746 0.755661L493.064 0.755657C503.627 0.755656 512.19 9.21362 512.19 19.6471V55.1629C512.19 65.5963 503.627 74.0543 493.064 74.0543H474.703V148.109Z" fill="#F8F8F8"/>
<path d="M249.018 19.647C249.018 9.21361 240.455 0.755656 229.893 0.755656H193.936C183.373 0.755656 174.81 9.21361 174.81 19.647V147.353C174.81 157.786 183.373 166.244 193.936 166.244H318.254C328.817 166.244 337.38 157.786 337.38 147.353V19.6471C337.38 9.21362 328.817 0.755656 318.254 0.755656H281.532C270.969 0.755656 262.406 9.21362 262.406 19.6471V92.9457H249.018V19.647Z" fill="#F8F8F8"/>
<path d="M581.06 17.0023C581.46 7.96282 589.006 0.755656 598.256 0.755656H613.174C622.424 0.755656 629.971 7.96282 630.371 17.0023H667.874C678.437 17.0023 687 25.4602 687 35.8937V38.9163L524.43 38.9163V35.8937C524.43 25.4602 532.993 17.0023 543.556 17.0023H581.06Z" fill="#F8F8F8"/>
<path d="M524.43 147.353V52.1403L687 52.1403V147.353C687 157.786 678.437 166.244 667.874 166.244H543.556C532.993 166.244 524.43 157.786 524.43 147.353Z" fill="#F8F8F8"/>
</svg>
