<svg width="100" height="100" viewBox="0 0 100 100" fill="none" xmlns="http://www.w3.org/2000/svg">
<path d="M34.7788 10.274C34.7788 4.59981 39.3771 0 45.0494 0H53.9506C59.6228 0 64.2211 4.59981 64.2211 10.274V12.7854C64.2211 18.4595 59.6228 23.0594 53.9506 23.0594H45.0494C39.3771 23.0594 34.7788 18.4595 34.7788 12.7854V10.274Z" fill="url(#paint0_linear_416_2)"/>
<path d="M12.4118 9.81735C6.10922 9.81735 1 14.9283 1 21.2329V23.0594L98 23.0594V21.2329C98 14.9283 92.8908 9.81735 86.5882 9.81735H12.4118Z" fill="url(#paint1_linear_416_2)"/>
<path d="M98 31.0502L1 31.0503V88.5845C1 94.8891 6.10922 100 12.4118 100H86.5882C92.8908 100 98 94.8891 98 88.5845V31.0502Z" fill="url(#paint2_linear_416_2)"/>
<defs>
<linearGradient id="paint0_linear_416_2" x1="49.5" y1="0" x2="49.5" y2="100" gradientUnits="userSpaceOnUse">
<stop stop-color="#E7691A"/>
<stop offset="1" stop-color="#FA9A48"/>
</linearGradient>
<linearGradient id="paint1_linear_416_2" x1="49.5" y1="0" x2="49.5" y2="100" gradientUnits="userSpaceOnUse">
<stop stop-color="#E7691A"/>
<stop offset="1" stop-color="#FA9A48"/>
</linearGradient>
<linearGradient id="paint2_linear_416_2" x1="49.5" y1="0" x2="49.5" y2="100" gradientUnits="userSpaceOnUse">
<stop stop-color="#E7691A"/>
<stop offset="1" stop-color="#FA9A48"/>
</linearGradient>
</defs>
</svg>
