<svg width="100" height="100" viewBox="0 0 100 100" fill="none" xmlns="http://www.w3.org/2000/svg">
<path d="M50.0008 37.1429C57.1016 37.1429 62.8579 42.8992 62.8579 50C62.8579 57.1008 57.1016 62.8572 50.0008 62.8572C42.9 62.8572 37.1436 57.1008 37.1436 50C37.1436 42.8992 42.9 37.1429 50.0008 37.1429Z" fill="#F8F8F8"/>
<path d="M17.8571 37.1429C24.9579 37.1429 30.7143 42.8992 30.7143 50C30.7143 57.1008 24.958 62.8572 17.8571 62.8572C10.7563 62.8572 5.00001 57.1008 5 50C5 42.8992 10.7563 37.1429 17.8571 37.1429Z" fill="#F8F8F8"/>
<path d="M82.1417 37.1429C89.2425 37.1429 94.9988 42.8992 94.9988 50C94.9988 57.1008 89.2425 62.8572 82.1417 62.8572C75.0409 62.8572 69.2846 57.1008 69.2846 50C69.2845 42.8992 75.0409 37.1429 82.1417 37.1429Z" fill="#F8F8F8"/>
</svg>
