<svg width="100" height="100" viewBox="0 0 100 100" fill="none" xmlns="http://www.w3.org/2000/svg">
<path d="M50.5859 5C50.5702 5 50.5604 5.01721 50.5686 5.03072C50.5764 5.04381 50.5954 5.04381 50.6033 5.03072C50.6114 5.01721 50.6017 5 50.5859 5Z" fill="#F8F8F8"/>
<path d="M48.6475 6.38458C49.8534 5.71645 51.3184 5.71645 52.5244 6.38458L92.9385 33.2749C94.2106 33.9797 95 35.3194 95 36.7738V43.5C95 45.7091 93.2091 47.5 91 47.5H73C70.7909 47.5 69 49.2909 69 51.5V91C69 93.2091 67.2091 95 65 95H35C32.7909 95 31 93.2091 31 91V51.5C31 49.2909 29.2091 47.5 27 47.5H9C6.79086 47.5 5 45.7091 5 43.5V37.423C5 35.9687 5.78938 34.6289 7.06153 33.9241L48.6475 6.38458Z" fill="#F8F8F8"/>
</svg>
