<svg width="100" height="100" viewBox="0 0 100 100" fill="none" xmlns="http://www.w3.org/2000/svg">
<path d="M74.953 8.52693C79.539 3.9411 86.9744 3.9411 91.5605 8.52692C96.1465 13.1127 96.1465 20.5478 91.5605 25.1337L25.1305 91.5606C20.5445 96.1465 13.109 96.1465 8.52298 91.5606C3.93695 86.9748 3.93695 79.5397 8.52298 74.9539L74.953 8.52693Z" fill="#F8F8F8"/>
<path d="M91.477 74.8663C96.063 79.4522 96.063 86.8873 91.477 91.4731C86.891 96.0589 79.4556 96.0589 74.8695 91.4731L8.43953 25.0461C3.85349 20.4603 3.85349 13.0252 8.43952 8.43937C13.0256 3.85354 20.461 3.85354 25.047 8.43937L91.477 74.8663Z" fill="#F8F8F8"/>
</svg>
