<svg width="100" height="100" viewBox="0 0 100 100" fill="none" xmlns="http://www.w3.org/2000/svg">
<path d="M6.16384 52.3216C4.61205 50.6581 4.61205 47.9013 6.16385 46.2379L43.5147 6.19909C45.9388 3.60054 49.9909 5.50381 49.9909 9.24095V89.3185C49.9909 93.0556 45.9388 94.9589 43.5147 92.3604L6.16384 52.3216Z" fill="#F8F8F8"/>
<path d="M90.5351 59.3345C83.4373 38.018 70.0624 30.38 52.5898 28.3762C50.9024 28.1826 49.3251 29.305 48.7758 31.0833C44.2684 45.6732 39.1421 70.6726 49.5627 70.6726C59.4253 70.6726 70.2374 73.3258 76.2552 78.3744C82.787 83.8543 86.0733 88.4594 89.3967 93.3689C91.3762 96.293 95.0388 95.0698 94.9997 91.4149C94.8996 82.07 93.7391 68.9572 90.5351 59.3345Z" fill="#F8F8F8"/>
</svg>
