<svg width="100" height="100" viewBox="0 0 100 100" fill="none" xmlns="http://www.w3.org/2000/svg">
<path d="M43.7856 18.3743C57.8199 18.3743 69.1969 29.7513 69.1969 43.7855C69.1969 57.8196 57.8199 69.1966 43.7856 69.1966C29.7514 69.1966 18.3744 57.8196 18.3744 43.7855C18.3744 29.7513 29.7514 18.3743 43.7856 18.3743Z" fill="#F8F8F8"/>
<path fill-rule="evenodd" clip-rule="evenodd" d="M5 43.7855C5 22.3647 22.3658 5 43.7856 5C65.2055 5 82.5713 22.3647 82.5713 43.7855C82.5713 52.5483 79.6665 60.6326 74.7661 67.1268L93.417 85.7799C95.5277 87.8893 95.5277 91.3089 93.417 93.4183C91.3116 95.5273 87.8896 95.5273 85.779 93.4183L67.1281 74.7648C60.6342 79.6652 52.5469 82.5709 43.7856 82.5709C22.3658 82.5709 5 65.2062 5 43.7855ZM13.0246 43.7855C13.0246 26.7967 26.7968 13.0246 43.7856 13.0246C60.7745 13.0246 74.5466 26.7967 74.5466 43.7855C74.5466 60.7742 60.7745 74.5463 43.7856 74.5463C26.7968 74.5463 13.0246 60.7742 13.0246 43.7855Z" fill="#F8F8F8"/>
</svg>
