<svg width="100" height="100" viewBox="0 0 100 100" fill="none" xmlns="http://www.w3.org/2000/svg">
<path fill-rule="evenodd" clip-rule="evenodd" d="M7.05642 41.5822C4.31453 46.7912 4.31453 53.2088 7.05642 58.4178L21.8817 86.5822C24.6236 91.7912 29.6909 95 35.1747 95H64.8253C70.3091 95 75.3764 91.7912 78.1183 86.5822L92.9436 58.4178C95.6855 53.2088 95.6855 46.7912 92.9436 41.5822L78.1182 13.4178C75.3764 8.20883 70.3091 5 64.8253 5L35.1747 5C29.6909 5 24.6236 8.20884 21.8817 13.4178L7.05642 41.5822ZM50 66.6277C58.3726 66.6277 65.1599 59.1832 65.1599 50C65.1599 40.8168 58.3726 33.3723 50 33.3723C41.6274 33.3723 34.8401 40.8168 34.8401 50C34.8401 59.1832 41.6274 66.6277 50 66.6277Z" fill="#F8F8F8"/>
</svg>
