<svg width="100" height="100" viewBox="0 0 100 100" fill="none" xmlns="http://www.w3.org/2000/svg">
<path fill-rule="evenodd" clip-rule="evenodd" d="M15 14C9.47715 14 5 18.4772 5 24V76C5 81.5229 9.47715 86 15 86H85C90.5229 86 95 81.5229 95 76V24C95 18.4772 90.5229 14 85 14H15ZM74 34C74 31.2386 71.7614 29 69 29L30 29C27.2386 29 25 31.2386 25 34C25 36.7614 27.2386 39 30 39L69 39C71.7614 39 74 36.7614 74 34ZM69 61C71.7614 61 74 63.2386 74 66C74 68.7614 71.7614 71 69 71H30C27.2386 71 25 68.7614 25 66C25 63.2386 27.2386 61 30 61L69 61ZM63 50C63 47.2386 60.7614 45 58 45L30 45C27.2386 45 25 47.2386 25 50C25 52.7614 27.2386 55 30 55H58C60.7614 55 63 52.7614 63 50Z" fill="#F8F8F8"/>
</svg>
