<svg width="100" height="100" viewBox="0 0 100 100" fill="none" xmlns="http://www.w3.org/2000/svg">
<path fill-rule="evenodd" clip-rule="evenodd" d="M26.2462 21C22.7879 21 19.575 22.7869 17.7507 25.7249L6.50448 43.8371C4.53035 47.0165 4.49668 51.032 6.41722 54.244L17.7738 73.2373C19.5792 76.2568 22.8385 78.1054 26.3565 78.1054H84.84C90.3629 78.1054 94.84 73.6283 94.84 68.1054V31C94.84 25.4772 90.3629 21 84.84 21H26.2462ZM24.2885 55.4445C27.7928 55.4445 30.6336 52.6038 30.6336 49.0995C30.6336 45.5952 27.7928 42.7544 24.2885 42.7544C20.7843 42.7544 17.9435 45.5952 17.9435 49.0995C17.9435 52.6038 20.7843 55.4445 24.2885 55.4445Z" fill="#F8F8F8"/>
</svg>
