<svg width="100" height="100" viewBox="0 0 100 100" fill="none" xmlns="http://www.w3.org/2000/svg">
<path fill-rule="evenodd" clip-rule="evenodd" d="M53.3516 5C56.0039 5 58.5469 6.05371 60.4238 7.92896L82.0703 29.5774C83.9473 31.4529 85 33.9963 85 36.6484V85C85 90.5229 80.5234 95 75 95H24C18.4766 95 14 90.5229 14 85V15C14 9.47705 18.4766 5 24 5H53.3516ZM49 23.071C49 18.6165 54.3848 16.3857 57.5352 19.5356L70.4648 32.4644C73.6152 35.6143 71.3828 41 66.9297 41H54C51.2383 41 49 38.7615 49 36V23.071ZM67 58C69.7617 58 72 60.2385 72 63C72 65.7615 69.7617 68 67 68H32C29.2383 68 27 65.7615 27 63C27 60.2385 29.2383 58 32 58H67ZM72 78C72 75.2385 69.7617 73 67 73H32C29.2383 73 27 75.2385 27 78C27 80.7615 29.2383 83 32 83H67C69.7617 83 72 80.7615 72 78Z" fill="#F8F8F8"/>
</svg>
